<svg xmlns="http://www.w3.org/2000/svg" viewBox="0 0 1600 1000" role="img" aria-labelledby="title desc">
  <title id="title">Indian mountain road trip illustration</title>
  <desc id="desc">A warm illustrated mountain highway scene with a road, hills, sun, and travel markers.</desc>
  <defs>
    <linearGradient id="sky" x1="0" x2="0" y1="0" y2="1">
      <stop offset="0" stop-color="#17324d"/>
      <stop offset="0.42" stop-color="#356078"/>
      <stop offset="1" stop-color="#f4b45f"/>
    </linearGradient>
    <linearGradient id="road" x1="0" x2="0" y1="0" y2="1">
      <stop offset="0" stop-color="#263848"/>
      <stop offset="1" stop-color="#111827"/>
    </linearGradient>
    <radialGradient id="sun" cx="50%" cy="50%" r="50%">
      <stop offset="0" stop-color="#fff2b8"/>
      <stop offset="0.55" stop-color="#f59e0b"/>
      <stop offset="1" stop-color="#d97706" stop-opacity="0"/>
    </radialGradient>
  </defs>
  <rect width="1600" height="1000" fill="url(#sky)"/>
  <circle cx="1220" cy="230" r="180" fill="url(#sun)" opacity=".9"/>
  <path d="M0 485 C210 310 370 300 550 430 C720 555 910 230 1120 350 C1310 455 1430 380 1600 310 L1600 1000 L0 1000 Z" fill="#0f3f35" opacity=".92"/>
  <path d="M0 555 C170 440 390 420 580 520 C800 635 950 470 1120 535 C1320 610 1450 520 1600 475 L1600 1000 L0 1000 Z" fill="#166534" opacity=".95"/>
  <path d="M0 660 C240 550 430 575 600 660 C780 750 1020 610 1200 680 C1390 750 1500 690 1600 650 L1600 1000 L0 1000 Z" fill="#fff8ed"/>
  <path d="M790 1000 C820 865 825 745 805 645 C790 568 765 522 735 478 L875 478 C850 548 842 613 860 690 C888 810 952 900 1025 1000 Z" fill="url(#road)"/>
  <path d="M814 970 L825 895 M840 820 L848 760 M859 700 L865 652 M872 602 L878 560" stroke="#fff8ed" stroke-width="8" stroke-linecap="round" stroke-dasharray="48 44" opacity=".9"/>
  <path d="M152 640 L215 552 L278 640 Z" fill="#d97706"/>
  <path d="M214 553 L214 718" stroke="#102a43" stroke-width="12" stroke-linecap="round"/>
  <circle cx="215" cy="545" r="47" fill="#fff8ed" stroke="#d97706" stroke-width="12"/>
  <path d="M215 517 C199 517 187 530 187 546 C187 570 215 592 215 592 C215 592 243 570 243 546 C243 530 231 517 215 517 Z" fill="#c2410c"/>
  <circle cx="215" cy="546" r="10" fill="#fff8ed"/>
  <path d="M1160 620 c62 -85 198 -78 250 0 c-40 30 -200 30 -250 0Z" fill="#102a43" opacity=".86"/>
  <circle cx="1215" cy="655" r="22" fill="#111827"/>
  <circle cx="1352" cy="655" r="22" fill="#111827"/>
  <rect x="1188" y="575" width="185" height="72" rx="24" fill="#f59e0b"/>
  <path d="M1230 575 l46 -48 h76 l36 48Z" fill="#fff8ed"/>
  <path d="M250 805 C360 770 470 770 585 815" fill="none" stroke="#d97706" stroke-width="5" stroke-linecap="round" stroke-dasharray="14 22" opacity=".65"/>
  <path d="M1040 815 C1160 775 1280 772 1415 820" fill="none" stroke="#d97706" stroke-width="5" stroke-linecap="round" stroke-dasharray="14 22" opacity=".65"/>
</svg>
